<?xml version="1.0" encoding="UTF-8" standalone="no"?>
<!DOCTYPE svg PUBLIC "-//W3C//DTD SVG 1.1//EN" "http://www.w3.org/Graphics/SVG/1.1/DTD/svg11.dtd">
<svg width="100%" height="100%" viewBox="0 0 1880 517" version="1.1" xmlns="http://www.w3.org/2000/svg" xmlns:xlink="http://www.w3.org/1999/xlink" xml:space="preserve" xmlns:serif="http://www.serif.com/" style="fill-rule:evenodd;clip-rule:evenodd;stroke-linejoin:round;stroke-miterlimit:2;">
    <g transform="matrix(4.16667,0,0,4.16667,0,0)">
        <path d="M40.028,52.84L57.909,52.84L49.142,25.103L48.911,25.103L40.028,52.84ZM28.262,6.934L70.829,6.934L99.552,91.479L67.137,91.479L61.831,73.189L35.76,73.189L30.8,91.479L0,91.479L28.262,6.934Z" style="fill:rgb(0,56,120);fill-rule:nonzero;"/>
        <path d="M98.513,28.373L127.584,28.373L127.584,91.479L98.513,91.479L98.513,28.373ZM127.584,21.711L98.513,21.711L98.513,0.636L127.584,0.636L127.584,21.711Z" style="fill:rgb(0,56,120);fill-rule:nonzero;"/>
        <path d="M161.152,28.373L161.152,42.665L161.383,42.665C164.844,33.703 170.611,26.92 179.725,26.92C181.455,26.92 183.301,27.162 184.454,27.525L184.454,52.84C183.07,52.235 180.532,51.871 177.879,51.871C169.804,51.871 162.998,59.26 162.998,68.586L162.998,91.479L133.928,91.479L133.928,28.373L161.152,28.373Z" style="fill:rgb(0,56,120);fill-rule:nonzero;"/>
        <path d="M356.756,53.93C356.41,48.964 357.909,41.454 364.6,41.454C371.176,41.454 371.867,49.085 371.867,53.93L356.756,53.93ZM365.524,26.92C341.183,26.92 328.263,37.578 328.263,58.776C328.263,60.449 328.348,62.059 328.499,63.619C322.88,47.724 295.848,53.129 295.848,47.269C295.848,43.393 300.923,42.908 305.884,42.908C312.459,42.908 318.689,44.362 324.802,46.541L324.802,29.584C317.651,28.01 310.383,26.92 303.115,26.92C288.811,26.92 269.316,30.069 269.316,48.238C269.316,72.583 303,65.074 303,72.826C303,75.975 297.232,76.944 292.387,76.944C284.889,76.944 276.583,74.764 271.046,71.251L271.046,89.298C279.236,91.479 287.773,92.932 296.193,92.932C309.921,92.932 329.531,88.087 329.531,70.039C329.531,69.881 329.514,69.739 329.511,69.583C333.277,84.61 345.553,92.932 365.524,92.932C375.674,92.932 384.902,91.842 392.632,89.298L392.632,72.947C388.018,75.491 380.865,76.944 372.906,76.944C364.369,76.944 357.333,75.127 356.871,67.254L397.016,67.254L397.016,63.499C397.016,42.181 388.825,26.92 365.524,26.92Z" style="fill:rgb(0,174,239);fill-rule:nonzero;"/>
        <path d="M445.349,26.92C436.235,26.92 430.468,33.703 427.007,42.665L426.776,42.665L426.776,28.373L399.552,28.373L399.552,91.479L428.622,91.479L428.622,68.586C428.622,59.26 435.428,51.871 443.503,51.871C446.156,51.871 448.693,52.235 450.078,52.84L450.078,27.525C448.925,27.162 447.079,26.92 445.349,26.92Z" style="fill:rgb(0,174,239);fill-rule:nonzero;"/>
        <path d="M266.894,6.934L186.375,6.934L186.375,58.29C186.375,83.243 204.025,92.932 226.52,92.932C250.86,92.932 266.894,83.969 266.894,56.595L266.894,6.934Z" style="fill:rgb(0,174,239);fill-rule:nonzero;"/>
        <path d="M231.683,71.857L231.683,83.471L214.314,83.471L214.314,91.842C218.15,92.58 222.246,92.932 226.52,92.932C230.958,92.932 235.116,92.629 238.955,91.976L238.955,71.857L231.683,71.857Z" style="fill:white;fill-rule:nonzero;"/>
        <rect x="214.314" y="59.888" width="24.641" height="9.461" style="fill:white;fill-rule:nonzero;"/>
        <path d="M214.314,39.165L229.07,43.79L229.07,43.861L214.314,48.45L214.314,58.581L238.955,49.791L238.955,38.6L214.314,29.493L214.314,39.165Z" style="fill:white;fill-rule:nonzero;"/>
        <path d="M238.955,28.539L238.955,6.934L233.024,6.934L233.024,19.29L229.67,19.29L229.67,6.934L223.739,6.934L223.739,19.29L220.244,19.29L220.244,6.934L214.314,6.934L214.314,28.539L238.955,28.539Z" style="fill:white;fill-rule:nonzero;"/>
        <path d="M23.871,109.988L25.094,109.988L25.094,123.764L23.732,123.764L23.732,111.528L21.502,113.481L20.753,112.594L23.871,109.988Z" style="fill:rgb(35,31,32);fill-rule:nonzero;"/>
        <path d="M37.248,122.58L38.374,122.58C42.281,122.58 44.827,121.001 44.827,116.777C44.827,112.574 42.32,111.173 39.242,111.173L37.248,111.173L37.248,122.58ZM35.887,109.988L39.301,109.988C44.235,109.988 46.189,112.831 46.189,116.856C46.189,121.85 42.853,123.764 38.295,123.764L35.887,123.764L35.887,109.988Z" style="fill:rgb(35,31,32);fill-rule:nonzero;"/>
        <path d="M48.93,109.988L55.68,109.988L55.68,111.173L50.292,111.173L50.292,116.087L55.403,116.087L55.403,117.27L50.292,117.27L50.292,122.58L55.917,122.58L55.917,123.764L48.93,123.764L48.93,109.988Z" style="fill:rgb(35,31,32);fill-rule:nonzero;"/>
        <path d="M68.012,111.528C67.145,111.074 65.901,110.936 64.934,110.936C61.362,110.936 59.349,113.462 59.349,116.877C59.349,120.35 61.303,122.817 64.934,122.817C65.841,122.817 67.223,122.698 68.012,122.225L68.092,123.408C67.341,123.863 65.802,124 64.934,124C60.592,124 57.987,121.139 57.987,116.877C57.987,112.692 60.671,109.752 64.934,109.752C65.743,109.752 67.381,109.891 68.092,110.266L68.012,111.528Z" style="fill:rgb(35,31,32);fill-rule:nonzero;"/>
        <path d="M71.484,109.988L78.234,109.988L78.234,111.173L72.846,111.173L72.846,116.087L77.957,116.087L77.957,117.27L72.846,117.27L72.846,122.58L78.47,122.58L78.47,123.764L71.484,123.764L71.484,109.988Z" style="fill:rgb(35,31,32);fill-rule:nonzero;"/>
        <path d="M81.113,109.988L83.225,109.988L88.258,122.105L93.31,109.988L95.264,109.988L95.264,123.764L93.903,123.764L93.903,111.35L93.863,111.35L88.85,123.764L87.686,123.764L82.515,111.35L82.476,111.35L82.476,123.764L81.113,123.764L81.113,109.988Z" style="fill:rgb(35,31,32);fill-rule:nonzero;"/>
        <path d="M99.701,116.008L101.221,116.008C102.662,116.008 104.577,115.633 104.577,113.442C104.577,111.449 102.741,111.173 101.577,111.173L99.701,111.173L99.701,116.008ZM99.662,122.58L101.084,122.58C102.919,122.58 104.991,122.087 104.991,119.895C104.991,117.448 102.879,117.192 100.866,117.192L99.662,117.192L99.662,122.58ZM98.3,109.988L101.577,109.988C103.827,109.988 105.938,110.738 105.938,113.384C105.938,115.14 105.13,116.185 103.432,116.521L103.432,116.56C105.169,116.877 106.353,118.02 106.353,119.836C106.353,122.836 103.906,123.764 101.044,123.764L98.3,123.764L98.3,109.988Z" style="fill:rgb(35,31,32);fill-rule:nonzero;"/>
        <path d="M109.154,109.988L115.903,109.988L115.903,111.173L110.516,111.173L110.516,116.087L115.627,116.087L115.627,117.27L110.516,117.27L110.516,122.58L116.14,122.58L116.14,123.764L109.154,123.764L109.154,109.988Z" style="fill:rgb(35,31,32);fill-rule:nonzero;"/>
        <path d="M120.185,116.087L121.625,116.087C123.223,116.087 125.059,115.475 125.059,113.56C125.059,111.311 123.461,111.173 121.586,111.173L120.185,111.173L120.185,116.087ZM118.822,109.988L122.375,109.988C124.822,109.988 126.421,111.034 126.421,113.56C126.421,115.337 125.059,116.521 123.362,116.738L123.362,116.777C124.467,116.916 124.704,117.508 125.138,118.435L127.486,123.764L125.986,123.764L123.993,119.106C123.204,117.33 122.611,117.27 121.309,117.27L120.185,117.27L120.185,123.764L118.822,123.764L118.822,109.988Z" style="fill:rgb(35,31,32);fill-rule:nonzero;"/>
        <path d="M134.056,122.58L137.214,119.087C138.872,117.252 140.53,115.198 140.53,113.521C140.53,112.06 139.464,111.034 138.102,111.034C136.859,111.034 135.872,111.39 134.786,112.021L134.55,110.777C135.556,110.284 136.898,109.85 138.023,109.85C140.254,109.85 142.009,110.975 142.009,113.462C142.009,115.515 139.997,117.902 138.22,119.856L135.734,122.58L142.325,122.58L142.325,123.764L134.056,123.764L134.056,122.58Z" style="fill:rgb(35,31,32);fill-rule:nonzero;"/>
        <path d="M146.132,116.877C146.132,119.165 146.428,122.718 149.29,122.718C152.152,122.718 152.448,119.165 152.448,116.877C152.448,114.587 152.152,111.034 149.29,111.034C146.428,111.034 146.132,114.587 146.132,116.877ZM153.81,116.877C153.81,119.758 153.218,123.902 149.29,123.902C145.363,123.902 144.771,119.758 144.771,116.877C144.771,113.659 145.62,109.85 149.29,109.85C152.961,109.85 153.81,113.659 153.81,116.877Z" style="fill:rgb(35,31,32);fill-rule:nonzero;"/>
        <path d="M155.525,122.58L158.683,119.087C160.34,117.252 161.998,115.198 161.998,113.521C161.998,112.06 160.932,111.034 159.571,111.034C158.327,111.034 157.34,111.39 156.255,112.021L156.019,110.777C157.025,110.284 158.367,109.85 159.492,109.85C161.722,109.85 163.478,110.975 163.478,113.462C163.478,115.515 161.465,117.902 159.689,119.856L157.202,122.58L163.794,122.58L163.794,123.764L155.525,123.764L155.525,122.58Z" style="fill:rgb(35,31,32);fill-rule:nonzero;"/>
        <path d="M170.818,109.988L172.042,109.988L172.042,123.764L170.68,123.764L170.68,111.528L168.45,113.481L167.7,112.594L170.818,109.988Z" style="fill:rgb(35,31,32);fill-rule:nonzero;"/>
        <path d="M199.233,116.087L200.673,116.087C202.272,116.087 204.107,115.475 204.107,113.56C204.107,111.311 202.509,111.173 200.634,111.173L199.233,111.173L199.233,116.087ZM197.871,109.988L201.423,109.988C203.871,109.988 205.469,111.034 205.469,113.56C205.469,115.337 204.107,116.521 202.41,116.738L202.41,116.777C203.515,116.916 203.752,117.508 204.186,118.435L206.535,123.764L205.035,123.764L203.042,119.106C202.252,117.33 201.66,117.27 200.358,117.27L199.233,117.27L199.233,123.764L197.871,123.764L197.871,109.988Z" style="fill:rgb(35,31,32);fill-rule:nonzero;"/>
        <rect x="208.389" y="109.988" width="1.361" height="13.776" style="fill:rgb(35,31,32);fill-rule:nonzero;"/>
        <path d="M222.163,111.528C221.295,111.074 220.051,110.936 219.085,110.936C215.512,110.936 213.499,113.462 213.499,116.877C213.499,120.35 215.453,122.817 219.085,122.817C219.992,122.817 221.373,122.698 222.163,122.225L222.242,123.408C221.492,123.863 219.952,124 219.085,124C214.743,124 212.138,121.139 212.138,116.877C212.138,112.692 214.821,109.752 219.085,109.752C219.893,109.752 221.532,109.891 222.242,110.266L222.163,111.528Z" style="fill:rgb(35,31,32);fill-rule:nonzero;"/>
        <path d="M226.364,116.877C226.364,119.797 227.825,122.817 231.062,122.817C234.298,122.817 235.758,119.797 235.758,116.877C235.758,113.955 234.298,110.936 231.062,110.936C227.825,110.936 226.364,113.955 226.364,116.877ZM231.062,109.752C235.206,109.752 237.16,113.146 237.12,116.877C237.081,121.1 235.028,124 231.062,124C227.095,124 225.043,121.1 225.003,116.877C224.964,113.146 226.917,109.752 231.062,109.752Z" style="fill:rgb(35,31,32);fill-rule:nonzero;"/>
        <path d="M239.684,109.988L241.046,109.988L241.046,116.087L248.012,116.087L248.012,109.988L249.374,109.988L249.374,123.764L248.012,123.764L248.012,117.27L241.046,117.27L241.046,123.764L239.684,123.764L239.684,109.988Z" style="fill:rgb(35,31,32);fill-rule:nonzero;"/>
        <path d="M262.693,111.291L259.693,118.89L265.672,118.89L262.693,111.291ZM262.022,109.988L263.56,109.988L269.026,123.764L267.606,123.764L266.126,120.074L259.178,120.074L257.699,123.764L256.377,123.764L262.022,109.988Z" style="fill:rgb(35,31,32);fill-rule:nonzero;"/>
        <path d="M272.143,116.087L273.583,116.087C275.182,116.087 277.018,115.475 277.018,113.56C277.018,111.311 275.419,111.173 273.544,111.173L272.143,111.173L272.143,116.087ZM270.781,109.988L274.333,109.988C276.78,109.988 278.379,111.034 278.379,113.56C278.379,115.337 277.018,116.521 275.32,116.738L275.32,116.777C276.426,116.916 276.662,117.508 277.097,118.435L279.444,123.764L277.945,123.764L275.951,119.106C275.162,117.33 274.57,117.27 273.268,117.27L272.143,117.27L272.143,123.764L270.781,123.764L270.781,109.988Z" style="fill:rgb(35,31,32);fill-rule:nonzero;"/>
        <path d="M281.477,109.988L288.226,109.988L288.226,111.173L282.838,111.173L282.838,116.087L287.95,116.087L287.95,117.27L282.838,117.27L282.838,122.58L288.463,122.58L288.463,123.764L281.477,123.764L281.477,109.988Z" style="fill:rgb(35,31,32);fill-rule:nonzero;"/>
        <path d="M290.928,109.988L292.645,109.988L299.651,122.105L299.691,122.105L299.691,109.988L301.052,109.988L301.052,123.764L299.217,123.764L292.329,111.883L292.29,111.883L292.29,123.764L290.928,123.764L290.928,109.988Z" style="fill:rgb(35,31,32);fill-rule:nonzero;"/>
        <path d="M308.905,111.291L305.905,118.89L311.885,118.89L308.905,111.291ZM308.234,109.988L309.774,109.988L315.239,123.764L313.819,123.764L312.339,120.074L305.392,120.074L303.911,123.764L302.59,123.764L308.234,109.988Z" style="fill:rgb(35,31,32);fill-rule:nonzero;"/>
        <path d="M346.535,111.528C345.667,111.074 344.423,110.936 343.456,110.936C339.885,110.936 337.871,113.462 337.871,116.877C337.871,120.35 339.825,122.817 343.456,122.817C344.364,122.817 345.746,122.698 346.535,122.225L346.614,123.408C345.864,123.863 344.325,124 343.456,124C339.114,124 336.51,121.139 336.51,116.877C336.51,112.692 339.194,109.752 343.456,109.752C344.266,109.752 345.903,109.891 346.614,110.266L346.535,111.528Z" style="fill:rgb(35,31,32);fill-rule:nonzero;"/>
        <path d="M350.737,116.877C350.737,119.797 352.198,122.817 355.435,122.817C358.671,122.817 360.131,119.797 360.131,116.877C360.131,113.955 358.671,110.936 355.435,110.936C352.198,110.936 350.737,113.955 350.737,116.877ZM355.435,109.752C359.578,109.752 361.532,113.146 361.493,116.877C361.453,121.1 359.401,124 355.435,124C351.468,124 349.415,121.1 349.376,116.877C349.336,113.146 351.289,109.752 355.435,109.752Z" style="fill:rgb(35,31,32);fill-rule:nonzero;"/>
        <path d="M369.029,123.764L367.568,123.764L362.438,109.988L363.878,109.988L368.319,122.402L372.917,109.988L374.259,109.988L369.029,123.764Z" style="fill:rgb(35,31,32);fill-rule:nonzero;"/>
        <path d="M375.837,109.988L382.586,109.988L382.586,111.173L377.198,111.173L377.198,116.087L382.31,116.087L382.31,117.27L377.198,117.27L377.198,122.58L382.823,122.58L382.823,123.764L375.837,123.764L375.837,109.988Z" style="fill:rgb(35,31,32);fill-rule:nonzero;"/>
        <path d="M385.288,109.988L387.005,109.988L394.011,122.105L394.051,122.105L394.051,109.988L395.412,109.988L395.412,123.764L393.577,123.764L386.69,111.883L386.651,111.883L386.651,123.764L385.288,123.764L385.288,109.988Z" style="fill:rgb(35,31,32);fill-rule:nonzero;"/>
        <path d="M400.956,111.173L396.891,111.173L396.891,109.988L406.384,109.988L406.384,111.173L402.318,111.173L402.318,123.764L400.956,123.764L400.956,111.173Z" style="fill:rgb(35,31,32);fill-rule:nonzero;"/>
        <path d="M409.421,116.087L410.862,116.087C412.461,116.087 414.297,115.475 414.297,113.56C414.297,111.311 412.698,111.173 410.822,111.173L409.421,111.173L409.421,116.087ZM408.06,109.988L411.611,109.988C414.059,109.988 415.657,111.034 415.657,113.56C415.657,115.337 414.297,116.521 412.599,116.738L412.599,116.777C413.704,116.916 413.941,117.508 414.375,118.435L416.724,123.764L415.224,123.764L413.231,119.106C412.442,117.33 411.85,117.27 410.547,117.27L409.421,117.27L409.421,123.764L408.06,123.764L408.06,109.988Z" style="fill:rgb(35,31,32);fill-rule:nonzero;"/>
        <path d="M422.15,117.923L417.037,109.988L418.616,109.988L422.82,116.718L427.142,109.988L428.622,109.988L423.511,117.923L423.511,123.764L422.15,123.764L422.15,117.923Z" style="fill:rgb(35,31,32);fill-rule:nonzero;"/>
        <path d="M182.144,116.871L186.312,112.703L190.48,116.871L186.312,121.051L182.144,116.871Z" style="fill:rgb(35,31,32);fill-rule:nonzero;"/>
        <path d="M321.282,116.871L325.45,112.703L329.618,116.871L325.45,121.051L321.282,116.871Z" style="fill:rgb(35,31,32);fill-rule:nonzero;"/>
    </g>
</svg>
